<svg xmlns="http://www.w3.org/2000/svg" enable-background="new 0 0 512 512" viewBox="0 0 512 512"><path fill="#F4A261" d="M216 72.017v40h-53.12c-6.56 0-12.96.96-18.88 2.8v-42.8H216zM368 72.017v42.8c-5.92-1.84-12.32-2.8-18.88-2.8H296v-40H368z"/><path fill="#E76F51" d="M296 72.017v40h-24c0-16 16-40 16-40H296zM224 72.017c0 0 16 24 16 40h-24v-40H224z"/><path fill="#F4A261" d="M504,344.017v40c0,26.48-21.52,48-48,48h-33.36c3.04-5.2,4.64-11.36,4.24-17.84l-4-70.16H504z"/><path fill="#FFBB4D" d="M504,336.017v8h-81.12l-2.8-48H464C486.08,296.017,504,313.937,504,336.017z"/><path fill="#F4A261" d="M89.36,432.017H56c-26.48,0-48-21.52-48-48v-40h81.12l-4,70.16C84.72,420.657,86.32,426.817,89.36,432.017z"/><path fill="#E76F51" d="M439.865 344.017H422.88l4 70.16c.4 6.48-1.2 12.64-4.24 17.84H456c20.034 0 37.209-12.328 44.394-29.792C465.238 405.641 445.059 375.164 439.865 344.017zM85.12 414.177l4-70.16H55.909c-2.003 28.565 1.282 59.05-37.976 69.134 8.779 11.445 22.551 18.866 38.066 18.866h33.36C86.32 426.817 84.72 420.657 85.12 414.177z"/><path fill="#FFBB4D" d="M91.92,296.017l-2.8,48H8v-8c0-22.08,17.92-40,40-40H91.92z"/><path fill="#E2A347" d="M433.238 296.017H420.08l2.8 48H504v-3.899C470.618 339.147 440.642 326.044 433.238 296.017zM78.075 296.017C70.331 326.52 39.719 335.249 8 337.094v6.924h81.12l2.8-48H78.075z"/><path fill="#F1FAEE" d="M328,336.017c11.26-2.815,19.482-8.636,24.799-16H152c-10.307,0-19.002,6.49-22.41,15.591
	C195.903,339.521,259.537,354.689,328,336.017z"/><path fill="#A8DADC" d="M360,320.017h-7.201c-5.317,7.364-13.539,13.185-24.799,16c-68.463,18.672-132.097,3.503-198.41-0.409
	c-0.983,2.625-1.59,5.437-1.59,8.409v16h256v-16C384,330.737,373.28,320.017,360,320.017z"/><path fill="#457B9D" d="M384,360.017v32c0,13.28-10.72,24-24,24H152c-13.28,0-24-10.72-24-24v-32H384z"/><path fill="#264653" d="M128,385.41v6.607c0,13.28,10.72,24,24,24h208c13.28,0,24-10.72,24-24v-32h-4.628
	C305.79,403.572,214.434,393.126,128,385.41z"/><path fill="#F1FAEE" d="M304,248.017v24c0,8.8-7.2,16-16,16h-64c-8.8,0-16-7.2-16-16v-24v-24c0-8.8,7.2-16,16-16h64
	c8.8,0,16,7.2,16,16V248.017z"/><path fill="#A8DADC" d="M288.741,208.093c3.065,34.971-40.713,56.676-80.741,63.1v0.825c0,8.8,7.2,16,16,16h64c8.8,0,16-7.2,16-16
	v-24v-24C304,215.471,297.193,208.491,288.741,208.093z"/><path fill="#F4A261" d="M426.88,414.177c0.4,6.48-1.2,12.64-4.24,17.84c-5.52,9.6-15.92,16-27.76,16H117.12
	c-11.84,0-22.24-6.4-27.76-16c-3.04-5.2-4.64-11.36-4.24-17.84l4-70.16l2.8-48l2.72-48H208v24c0,8.8,7.2,16,16,16h64
	c8.8,0,16-7.2,16-16v-24h113.36l2.72,48l2.8,48L426.88,414.177z M384,392.017v-32v-16c0-13.28-10.72-24-24-24H152
	c-13.28,0-24,10.72-24,24v16v32c0,13.28,10.72,24,24,24h208C373.28,416.017,384,405.297,384,392.017z"/><path fill="#FFBB4D" d="M417.36,248.017H304v-24c0-8.8-7.2-16-16-16h-64c-8.8,0-16,7.2-16,16v24H94.64l4.32-75.68
	c1.52-27.28,20.08-49.76,45.04-57.52c5.92-1.84,12.32-2.8,18.88-2.8H216h24h32h24h53.12c6.56,0,12.96,0.96,18.88,2.8
	c24.96,7.76,43.52,30.24,45.04,57.52L417.36,248.017z"/><path fill="#E2A347" d="M417.36,248.017l-4.32-75.68c-1.454-26.095-18.575-47.647-41.899-56.276
	c-6.518,24.827-12.225,49.653-19.306,74.479c-3.804,13.337-20.284,18.164-30.689,8.995c-22.133-19.503-43.137-43.522-73.146-31.519
	c-47.546,27.169-95.131,59.994-152.471,64.422l-0.889,15.578H208v-24c0-8.8,7.2-16,16-16h64c8.8,0,16,7.2,16,16v24H417.36z"/><path fill="#F2DCA6" d="M120 168.017c0 0 32-40 80-32S104 200.017 120 168.017zM32.487 323.233c0 0 11.881-14.851 29.702-11.881S26.546 335.114 32.487 323.233z"/><path d="M349.152 152.017c12.711 0 23.234 9.938 23.957 22.629.242 4.254 3.77 7.543 7.98 7.543.152 0 .309-.004.465-.012 4.41-.254 7.781-4.031 7.531-8.445-1.207-21.148-18.746-37.715-39.934-37.715-4.418 0-8 3.582-8 8S344.734 152.017 349.152 152.017zM382.574 200.029c-4.41.254-7.781 4.035-7.531 8.445l.969 16.957c.246 4.254 3.77 7.543 7.98 7.543.152 0 .309-.004.465-.012 4.41-.254 7.781-4.035 7.531-8.445l-.969-16.957C390.766 203.154 387.125 199.857 382.574 200.029z"/><path d="M464,288.017h-36.329l-6.636-116.109c-1.635-28.614-19.882-52.561-45.035-62.694V72.017c0-4.418-3.582-8-8-8h-80
		c-2.676,0-5.172,1.336-6.656,3.562c-1.519,2.282-13.132,20.115-16.442,36.438h-17.804c-3.31-16.323-14.923-34.156-16.442-36.438
		c-1.484-2.227-3.98-3.562-6.656-3.562h-80c-4.418,0-8,3.582-8,8v37.196c-25.153,10.134-43.4,34.08-45.035,62.694l-6.636,116.109H48
		c-26.469,0-48,21.531-48,48v48c0,30.879,25.121,56,56,56h29.331c0.882,1.161,1.651,2.387,2.669,3.465
		c7.633,8.082,17.961,12.535,29.082,12.535h277.836c11.121,0,21.449-4.453,29.082-12.535c1.018-1.078,1.788-2.304,2.669-3.465H456
		c30.879,0,56-25.121,56-56v-48C512,309.549,490.469,288.017,464,288.017z M464,304.017c17.645,0,32,14.355,32,32h-65.586l-1.829-32
		H464z M360,104.917c-3.549-0.54-7.155-0.9-10.848-0.9H304v-24h56V104.917z M288,87.944v16.073h-6.687
		C282.812,98.725,285.395,92.978,288,87.944z M230.687,104.017H224V87.944C226.605,92.978,229.188,98.725,230.687,104.017z
		 M152,80.017h56v24h-45.152c-3.693,0-7.299,0.36-10.848,0.9V80.017z M162.848,120.017h186.305c29.66,0,54.219,23.195,55.906,52.805
		l3.84,67.195H312v-16c0-13.234-10.766-24-24-24h-64c-13.234,0-24,10.766-24,24v16h-96.899l3.84-67.195
		C108.629,143.213,133.188,120.017,162.848,120.017z M296,224.017v48c0,4.41-3.59,8-8,8h-64c-4.41,0-8-3.59-8-8v-48
		c0-4.41,3.59-8,8-8h64C292.41,216.017,296,219.607,296,224.017z M48,304.017h35.415l-1.829,32H16
		C16,318.373,30.355,304.017,48,304.017z M56,424.017c-22.055,0-40-17.945-40-40v-32h64.672l-3.527,61.719
		c-0.201,3.517,0.205,6.934,0.883,10.281H56z M412.371,432.494c-4.582,4.852-10.781,7.523-17.453,7.523H117.082
		c-6.672,0-12.871-2.672-17.453-7.523c-4.578-4.848-6.891-11.188-6.508-17.844l9.066-158.633H200v16c0,13.234,10.766,24,24,24h64
		c13.234,0,24-10.766,24-24v-16h97.813l9.066,158.633C419.262,421.306,416.949,427.646,412.371,432.494z M456,424.017h-22.027
		c0.678-3.347,1.083-6.765,0.883-10.281l-3.527-61.719H496v32C496,406.072,478.055,424.017,456,424.017z"/><path d="M360,312.017H152c-17.645,0-32,14.355-32,32v48c0,17.645,14.355,32,32,32h208c17.645,0,32-14.355,32-32v-48
		C392,326.373,377.645,312.017,360,312.017z M152,328.017h208c8.824,0,16,7.176,16,16v8H136v-8
		C136,335.193,143.176,328.017,152,328.017z M360,408.017H152c-8.824,0-16-7.176-16-16v-24h240v24
		C376,400.842,368.824,408.017,360,408.017z"/></svg>